# xmcd CD database file
#
# Track frame offsets:
#	150
#	53985
#	110100
#	143827
#	176265
#	230460
#	280762
#	317265
#
# Disc length: 4631 seconds
#
# Revision: 2
# Processed by: cddbd v1.5.2PL0 Copyright (c) Steve Scherf et al.
# Submitted via: CDex 1.70beta1
#
DISCID=68121508
DTITLE=Dave Holland Quartet - ECM - Dream Of The Elders
DYEAR=1996
DGENRE=Jazz
TTITLE0=The Winding Way
TTITLE1=Lazy Snake
TTITLE2=Claressence
TTITLE3=Equality
TTITLE4=Ebb and Flo
TTITLE5=Dream Of The Elders
TTITLE6=Second Thoughts
TTITLE7=Equality
EXTD=YEAR: 1996
EXTT0=
EXTT1=
EXTT2=
EXTT3=
EXTT4=
EXTT5=
EXTT6=
EXTT7=
PLAYORDER=
